<!DOCTYPE svg PUBLIC "-//W3C//DTD SVG 1.1//EN" "http://www.w3.org/Graphics/SVG/1.1/DTD/svg11.dtd">
<!-- Uploaded to: SVG Repo, www.svgrepo.com, Transformed by: SVG Repo Mixer Tools -->
<svg fill="#ffffff" version="1.1" id="Capa_1" xmlns="http://www.w3.org/2000/svg" xmlns:xlink="http://www.w3.org/1999/xlink" width="218px" height="218px" viewBox="0 0 45.729 45.729" xml:space="preserve" data--h-bstatus="0OBSERVED" stroke="#ffffff" transform="matrix(1, 0, 0, 1, 0, 0)rotate(0)">
<g id="SVGRepo_bgCarrier" stroke-width="0" data--h-bstatus="0OBSERVED"/>
<g id="SVGRepo_tracerCarrier" stroke-linecap="round" stroke-linejoin="round" data--h-bstatus="0OBSERVED"/>
<g id="SVGRepo_iconCarrier" data--h-bstatus="0OBSERVED"> <g data--h-bstatus="0OBSERVED"> <g data--h-bstatus="0OBSERVED"> <g data--h-bstatus="0OBSERVED"> <path d="M34.172,43.697c0,1.123-0.91,2.031-2.031,2.031c-1.122,0-2.031-0.908-2.031-2.031c0-1.121,0.909-4.031,2.031-4.031 C33.262,39.666,34.172,42.576,34.172,43.697z" data--h-bstatus="0OBSERVED"/> </g> <g data--h-bstatus="0OBSERVED"> <path d="M24.172,43.697c0,1.123-0.91,2.031-2.032,2.031s-2.031-0.908-2.031-2.031c0-1.121,0.909-4.031,2.031-4.031 S24.172,42.576,24.172,43.697z" data--h-bstatus="0OBSERVED"/> </g> <g data--h-bstatus="0OBSERVED"> <path d="M14.171,43.697c0,1.123-0.909,2.031-2.031,2.031c-1.122,0-2.031-0.908-2.031-2.031c0-1.121,0.909-4.031,2.031-4.031 C13.262,39.666,14.171,42.576,14.171,43.697z" data--h-bstatus="0OBSERVED"/> </g> <g data--h-bstatus="0OBSERVED"> <path d="M29.172,33.697c0,1.123-0.91,2.031-2.031,2.031c-1.122,0-2.031-0.908-2.031-2.031c0-1.121,0.909-4.031,2.031-4.031 C28.262,29.666,29.172,32.576,29.172,33.697z" data--h-bstatus="0OBSERVED"/> </g> <g data--h-bstatus="0OBSERVED"> <path d="M19.171,33.697c0,1.123-0.909,2.031-2.031,2.031c-1.122,0-2.031-0.908-2.031-2.031c0-1.121,0.909-4.031,2.031-4.031 C18.262,29.666,19.171,32.576,19.171,33.697z" data--h-bstatus="0OBSERVED"/> </g> <g data--h-bstatus="0OBSERVED"> <path d="M45.697,10.533c0-3.424-2.775-6.199-6.199-6.199c-1.506,0-2.885,0.537-3.959,1.43C35.323,2.546,32.651,0,29.379,0 c-2.529,0-4.703,1.522-5.658,3.699c-1.743-1.178-4.011-1.865-6.272-1.865c-6.028,0-11.083,4.887-11.083,10.916 c0,0.008,0,0.016,0,0.023c-3,0.236-6.334,3.246-6.334,6.935c0,3.843,3.199,6.958,7.042,6.958c2.726,0,5.12-1.57,6.262-3.854 c1.303,0.549,2.756,0.854,4.259,0.854c3.378,0,6.408-1.535,8.41-3.945c1.215,2.811,4.016,4.779,7.272,4.779 c4.372,0,7.919-3.545,7.919-7.917c0-0.03-0.003-0.061-0.003-0.091C43.791,15.754,45.697,13.368,45.697,10.533z" data--h-bstatus="0OBSERVED"/> </g> </g> </g> </g>
</svg>